<?xml version="1.0" encoding="utf-8"?>
<!-- Generator: Adobe Illustrator 24.0.2, SVG Export Plug-In . SVG Version: 6.00 Build 0)  -->
<svg version="1.1" id="Layer_1" xmlns="http://www.w3.org/2000/svg" xmlns:xlink="http://www.w3.org/1999/xlink" x="0px" y="0px"
	 viewBox="0 0 1920 1080" style="enable-background:new 0 0 1920 1080;" xml:space="preserve">
<style type="text/css">
	.st0{display:none;}
	.st1{display:inline;}
	.st2{fill:none;stroke:#E81F1F;stroke-width:2;stroke-miterlimit:10;stroke-dasharray:9.0143,9.0143;}
	.st3{display:inline;fill:url(#SVGID_1_);}
	.st4{display:inline;fill:none;}
	.st5{fill:#303030;}
	.st6{fill:#403F3F;}
	.st7{fill:#FF5F58;}
	.st8{fill:#FFBE2F;}
	.st9{fill:#2AC940;}
	.st10{fill:#D5A49F;}
	.st11{fill:#B88582;}
	.st12{fill:#141414;}
	.st13{fill:#191919;}
	.st14{fill:#E8E7E7;}
	.st15{fill:#1F7743;}
	.st16{fill:#232323;}
	.st17{opacity:0.26;fill:#020202;enable-background:new    ;}
	.st18{fill:#0C0D0D;}
	.st19{fill:#EFEFEF;}
	.st20{fill:#F10000;}
	.st21{fill:#3B2314;}
	.st22{fill:#255135;}
</style>
<g id="Layer_1_1_">
</g>
<g id="Layer_2_1_" class="st0">
	<g class="st1">
		<g>
			<path class="st2" d="M1957.6,252.6C1896,235.8,1628.5,182.8,1470,476c-137.2,253.8-127,254-276,304
				c-143.2,48.1-267.2,241.6-301.8,314.3"/>
		</g>
	</g>
	
		<linearGradient id="SVGID_1_" gradientUnits="userSpaceOnUse" x1="1917.6803" y1="190.9016" x2="1045.0105" y2="525.8881" gradientTransform="matrix(1 0 0 -1 0 1080)">
		<stop  offset="0" style="stop-color:#F10000"/>
		<stop  offset="2.920000e-02" style="stop-color:#F10000;stop-opacity:0.9708"/>
		<stop  offset="1" style="stop-color:#F10000;stop-opacity:0"/>
	</linearGradient>
	<path class="st3" d="M1920,319.4c0,0-245-123.4-425,209.6c-137.2,253.8-127,254-276,304s-263.4,182-291.7,247H1920V319.4z"/>
	<rect x="159.1" y="234.4" class="st4" width="990.7" height="63.4"/>
</g>
<g id="Layer_3">
	<g>
		<g>
			
				<image style="overflow:visible;enable-background:new    ;" width="1182" height="722" xlink:href="D24ACAB8.png"  transform="matrix(1 0 0 1 351 183)">
			</image>
		</g>
		<path class="st5" d="M1496,235.9v602.6c0,13.5-10.9,24.5-24.5,24.5H411.8c-13.5,0-24.5-11-24.5-24.5V235.9
			c0-13.5,11-24.5,24.5-24.5h1059.8C1485.1,211.4,1496,222.4,1496,235.9z"/>
		<path class="st6" d="M1496,235.9V262H387.4v-26.1c0-13.5,11-24.5,24.5-24.5h1059.8C1485.1,211.4,1496,222.4,1496,235.9z"/>
		<path class="st5" d="M688,220H558c-11.6,0-21,9.4-21,21.1V266h172v-24.9C709,229.4,699.6,220,688,220z"/>
		<g>
			<circle class="st7" cx="422.8" cy="237.7" r="12.6"/>
		</g>
		<g>
			<circle class="st8" cx="465.1" cy="237.7" r="12.6"/>
		</g>
		<g>
			<circle class="st9" cx="507.4" cy="237.7" r="12.6"/>
		</g>
		<g>
			<path class="st10" d="M294.2,441.1c0,0,7.3,15.3,7.3,18.5s-0.9,14.4-38.4,39.3c0,0-9.4,3.2-14.1,29.9c0,0,0.6,35.2,6.8,49.6
				c0,0,2.3,22,2.1,42.5c0,0,125.6,228,135.2,215.2c0,0-0.4-9.7-12.3-84.5c0,0,13.2-6.6,13.6-11c0,0,1.8-31.7,1.3-33.4s-7-11-7-11
				s-6.4-24.6-5.5-27.7c0,0-21.9-83.6-16.4-99.9l14.2-14.7c0,0,17.8,0.2,19.1-11c0,0,7-5.3,9.1-8.6c0,0,2.8-7.2-5.4-4
				c0,0-1.6,4.8-11.3,7.3c0,0-6.3-0.2-0.7-3.8c5.6-3.7,23.2-10.4,28.6-16.3c0,0,1.5-8.4-12.5,0.6c0,0-17.9,7.6-22.6,7.3
				c0,0-20.2,16.1-21,17.8l-3.2,3.5L360,521c0,0-10.8-15.7-22.4-30.9c0,0-8.5-7.9,0.1-17.8l9.2-0.1c0,0,6.9-7.2,9.1-20.8
				c0,0,2.5-31.2-0.4-39.2c0,0-4.4-19.7-21-24.8C334.7,387.4,269.7,381,294.2,441.1z"/>
			<path class="st5" d="M301.3,458.1c0,0,15.7,1.9,18.7-6.1s0-23,5-25s7-9,10-10s4.4-15.7,17.7-12.9C366,407,351,385,346,383
				s-25-9-41,2s-23,17-23,35S296.6,456.3,301.3,458.1"/>
			<path class="st11" d="M351.1,552c0,0,4.7,25.2,3.5,27.6c-1.2,2.3-7.6,18.8,2,27.6s12,34.6,14.1,44.9l10.3,44.3l7.6-0.2
				l-20.2-91.7l-2.1-36.3l-4.4-18.6L351.1,552z"/>
			<path class="st11" d="M364.6,560.9c0,0,12.2-15,16.4-7l-14.2,14.7C366.8,568.6,364.6,565.3,364.6,560.9z"/>
			<path class="st11" d="M368.3,702.6l12.8-6.3l7.6-0.2c0,0,6.6,7.9,7.3,10.8c1,4-0.8,16.2-1,18s0.9,15.3-0.5,16.8
				s-10.2,10.3-12.7,10.3s-6.9-12.3-6.9-12.3l-0.3-5.6l13.7-6.1l-4.7-16.4l-1.8-6l-11.6,0.8L368.3,702.6"/>
			<path class="st12" d="M362,551c0,0-35.3,4.8-37.6,11.6s-3.1-35.2-3.1-35.2s15.3-32.8,23.5-32.3c0,0,12.6,7.7,15.9,26L362,551z"/>
			<path class="st13" d="M299.5,466.4c0,0,19.3,0.9,34.5,12.6c0,0-0.7,11.5,10.8,16.1c0,0-17.8,16.4-17.5,34.9
				c0.2,12.3-4.1,13.3-2.9,32.6c0,0.3,0,0.5,0,0.8c0.7,9.8,2.8,24.2,7.5,46.7c0,0,16.5,52,25.2,68.8c1.1,2.1-0.5,4.5-2.8,4.5h-96.9
				c0,0,0.8-71-6.8-117.8c0,0-11.2-56.5,12.5-67C263.3,498.6,291.5,479.6,299.5,466.4z"/>
			<path class="st12" d="M324.6,562.5c0,0,10,89,24.9,120.9h9.5c0,0-13.9-34.6-16.1-40.8c0,0-8.3-25.5-10.1-30.1
				C332.8,612.5,323.7,568.6,324.6,562.5z"/>
			<path class="st14" d="M273.1,962.1l-4.7-52.7c0-0.2-0.1-0.5-0.2-0.7c-11.6-32,2.4-75.2,4.1-80.2c0.1-0.3,0.2-0.7,0.1-1
				c-0.9-52.2-5.9-87.2-5.9-87.2l-9.1-56.9H359l15.3,31.7c0.2,0.4,0.3,0.8,0.3,1.3v22.1c0,0.5,0.1,0.9,0.3,1.3
				c8.6,17.7,13.7,60.7,14.3,66.3c0,0.4,0.2,0.8,0.4,1.1c13,22.1-3.9,50-5.7,52.9c-0.1,0.2-0.2,0.3-0.3,0.5
				c-6.9,19.4-25.4,83.8-29.5,98.2c-0.1,0.5-0.4,1-0.7,1.4c-0.7,0.9-1.9,1.5-3.1,1.5l-22.1-0.2c-1.9,0-3.4-1.3-3.8-3
				c-0.1-0.6-0.2-1.2,0-1.8c19-89.8,25.5-104.5,26.2-106c0.1-0.1,0.1-0.2,0.2-0.3c3.1-7.8,2.7-21.1,2.6-23.3c0-0.2,0-0.4-0.1-0.6
				c-5.2-20.2-32.7-72.8-32.7-72.8h-1.7l-5.1,73.7c0,0.2,0,0.3-0.1,0.5c-1.1,5-7,26.8-7.5,29c-5.8,23.2-8.3,104.8-8.3,104.8h1.8
				L273.1,962.1"/>
			<path class="st15" d="M258.6,690.4c0,0-3,5.6,104.1,0.7l-3.7-7.7c0,0-100,0.6-101.5,0L258.6,690.4z"/>
			<path class="st14" d="M280,683.7c0,0-1,7.5,0.8,9.3h3c0,0-2.1-3-1.2-9.3"/>
			<path class="st14" d="M329.7,683.6c0,0-2.2,6.6,0,8.9l1.9-0.1c0,0-1.5-4.7,0.8-8.8L329.7,683.6L329.7,683.6z"/>
			<path class="st16" d="M272.9,962.1c0,0,1.1,32.4-1.8,39.9c0,0-2.2,8.8,4.2,10.6h38.5v-9.2v-9.5c0,0-10.8-10.6-14.5-32.1l-8.4,0.1
				L272.9,962.1z"/>
			<path class="st16" d="M273,986c0,0,5.2-6,9.4-1.6s18.7,1.6,18.7,1.6s4.6-8.1,1.9-10.8c0,0-3.4-11.7-3.6-13.5l-8.4,0.1l-18,0.3
				C272.9,962.1,273.1,983.8,273,986z"/>
			<path class="st17" d="M288.4,962.1c0,0,5.4,30,15.4,33.5s10-1.8,10-1.8s-9.2-7.5-14.5-32.1L288.4,962.1z"/>
			<path class="st18" d="M313.9,1007.3l-43-1.7c0,0-0.7,5.3,4.5,6.9s0,0,0,0h38.5L313.9,1007.3"/>
			<path class="st18" d="M313.9,1012v-10.9l30.5,2.2l54.9,1l3.5-1.6c0,0,0.5,8.9-6.5,11.4S313.9,1012,313.9,1012"/>
			<path class="st16" d="M313.9,1003.3c0,0,8.1,2,17.8,2.3s65.5,2.6,65.5,2.6s8.5-5.6,4.9-8.6s-25.3-4.4-28.8-6.8s-15-18-17.4-18.5
				S319,975,319,975S313.9,990.1,313.9,1003.3z"/>
			<path class="st16" d="M353.4,960.2l-29.1-1.7l-7.6,23.7c0,0,7.3-0.9,16.3,6.6s22.9-3.5,22.9-3.5v-11L353.4,960.2"/>
			<path class="st17" d="M394.5,997.1c0,0,1.4,4.6-1.8,4.6s-20.8,1.8-30.2-5.6s-14.7-14.7-16.1-18c-1.5-3.4-3.7-18.5-2.9-18.5h9.7
				l2.9,14.7c0,0,1.8,0.4,9.8,10.4c0,0,6.3,7.3,7.5,8.1C373.3,992.8,372.8,993.8,394.5,997.1z"/>
		</g>
		<path class="st10" d="M1517.7,647c0,0-8,59.5,2,82.6c0,0,8.9,53.6,25.2,74.3c0,0,7.6,21.2,4.9,56c0,0,3.8,62,7.6,70.7h21.2
			c0,0,9.4-103.3,5.4-108.2c-2-2.4,1.7-12.5-11.9-50.6l-0.5-27.2c0,0,17.4,43.5,22.3,66.3c0,0,3.3,14.1,14.1,32.6
			c0,0,37.5,74.5,36.4,87h22.8c0,0-1.1-69.6-32.6-114.8c0,0-22.2-119.7-23.6-127.3s0,0,0,0l-10.4-41.6H1517.7"/>
		<path class="st19" d="M1552.7,951.3c0,0-2,6.8,18.8,5.9c0,0,8.2,0.8,9.8-3.7l-2.7-22.9h-21.2c0,0,0.6,2.3,0.7,5.5
			C1558.2,940.5,1557.4,946.5,1552.7,951.3z"/>
		<path class="st19" d="M1644.4,930.7c0,0,1.6,1.1,1.2,2.2c-0.4,1.1,0.1,19.2,0.1,20.1c-0.1,1,7-6.8,16.1,1c0,0,5.6,7.1,7.8-0.5
			c0,0-3.5-15.5-2.3-22.7H1644.4z"/>
		<path class="st18" d="M1552.7,951.3c0,0-16,12.4-21.6,13.5c0,0-9.8,4.6,0,11c0,0,46.1-0.1,46.9,0s4.6-2.6,5.6-7.3
			c0,0,1.3-27-2.8-18.6C1576.7,958.3,1552.7,951.3,1552.7,951.3z"/>
		<path class="st18" d="M1645.7,951.3c0,0-13,15.1-13.3,19.7s2.4,5.6,8.2,4.8c0,0,20.8,0.1,27.2,0c6.4-0.1,4.1-23.7,1.8-24.5
			S1647.7,948.9,1645.7,951.3z"/>
		<path class="st14" d="M1517.7,647c0,0-10.1,92.3-16,134.6c0,0,11.2,11.2,25.3,0c0,0,1.3-2.9,6.2-0.3c4.9,2.6,3.7,12,23.1-1.5
			c0,0,6.2-3.5,8.7,1.2c2.5,4.7,19.6,8.8,25.7-2.9c0,0,10.8-5.3,14.3-3.5c3.5,1.8,12.9,10,24.1-5.9c0,0,4.1-12.3,8.2-10.6
			c0,0-8.9-61.3-36.8-111.1s0,0,0,0l0,0L1517.7,647"/>
		<path class="st15" d="M1579.1,935.4c0,0-20.5,0.7-21.1,0l0,1.4c0,0,10.9,1.3,21,0L1579.1,935.4L1579.1,935.4z"/>
		<path class="st15" d="M1667.1,936.4c0,0-21.1,0.7-21.7,0l0,1.4c0,0,11.3,1.3,21.6,0L1667.1,936.4L1667.1,936.4z"/>
		<path class="st10" d="M1611,688.4c-1.4,1.7-1.5,8.4-2,9.3c3.1,7.5,3.8,19.7,3.8,19.7c-9.8,11.4-18.8,14.5-18.8,14.5
			c-2.4,5.6-6.4,1.5-6.4,1.5c-1.2-1.1,1.2-6.3,1.2-6.3c-1.8,0.5-3.6-1.4-3.8-1.4c0,0-2.3-12.1,0-17.1s9.9-24.9,9.9-24.9"/>
		<path class="st11" d="M1496.3,620c0,0-13.7,2.4-15.3,1c-0.9-0.9-2.3-3.3-3.2-5.1c-0.9-1.8-3-2.7-4.8-2c-1.9,0.8-2.9,3,1.4,9.3l0,0
			c-5.7,0-11.2,1.9-15.6,5.5l-6.6,5.3c-1,0.8-1.7,2-1.7,3.3c0,0.9,0.3,1.7,1.3,2.1c0.9,0.3,1.8,0.1,2.6-0.4l5.1-3.6
			c0,0-8.2,7-8.2,8.7c-0.1,1.3-1,2.2,0.5,2.9c1.2,0.5,2.6,0.3,3.7-0.5c2.5-1.8,7.8-5.3,8.3-6.3c0,0-6.3,7.9-6,9.3s1.3,4.4,9-3.8
			l0.4,0.6c0,0-3,4.3-1.5,6c1.5,1.7,11.8-7.7,11.8-7.7s10.7-4.1,11.6-4.6s13.3-5.2,18-4.5C1511.8,636.2,1496.3,620,1496.3,620"/>
		<path class="st10" d="M1497.3,621.2c0,0-26.7,0.3-46.9,16.2c0,0,0,0,0-0.1c0-1.3,0.6-2.4,1.6-3.2l7-5.6c4.3-3.5,9.6-5.5,15.1-5.7
			l0,0c0,0-4.6-5.9-1.8-8.5c0,0,0.4-0.3,1.1-0.5c1.6-0.5,2.3,0.2,3.6,1.3c1.8,1.6,3.5,5.1,4,6c0.7,1.3,14.5-0.8,15.3-1"/>
		<path class="st15" d="M1516.6,657.1c0,0,25.1,4.1,84.4,0l-0.3-10.1c0,0-80.5,3.4-82.9,0L1516.6,657.1z"/>
		<path class="st13" d="M1517.7,647h82.9c0,0,1.9-15.8,0-24.5c0,0-3.3-15.5,3.5-25.3c0,0,1.4-13,0-15.2c0,0,3.5,42.4-5.2,74.8
			l-4.1,26.9c0,0,12.5,6.3,16,4.6c3.5-1.6,27.7-59.5,23.1-89.7l-5.4-79.3c0,0-19.1-34.3-39.2-31.1s0,0,0,0l-38.5,3
			c0,0-35.3-1.5-28.5,34.3c0.7,3.7,0.6,7.4-0.2,11c-1.7,7.8-4.4,20.7-4.6,23.2c0,0-0.8,15,4.9,24.8V600l-27.2,19
			c0,0,10.1,11.2,12,17.4l13.3-3L1517.7,647z"/>
		<path class="st12" d="M1576.3,647c0,0,1.5-6.5-16.1-21.6c-17.6-15.1-22.5-33.6-19.2-42.3s8.8,3.3,35.4-2.2s8.7-21.8,9.8-46.2
			c1.1-24.5,3.9-28.7-7.3-34.2c-11.2-5.5,10.9-10.9,10.9-10.9s18.9,0.2,29.1,16.4c10.2,16.2,14.1,13.4,15.7,107.6
			c0,0-6.1,47.2-23.6,75.1l0,0c-4.2,0.5-8.4-0.6-12-3l-0.9-0.4l4.5-15.8c0,0,22-53,19.2-64.5c-2.9-11.4,9.4-76.7-18.8-102.4
			c0,0-3.8-1.5-4.7,1.9c-1,3.4,9.4,107.6,2.3,142.5H1576.3z"/>
		<g>
			<path class="st20" d="M1533.4,555.2l0,9.8l-2.3-0.2l0-7.3l-4.7-0.5l0,7.3l-2.3-0.2l0-9.8L1533.4,555.2z"/>
			<path class="st20" d="M1538.3,555.7l0,7.3l9.4,1l0,2.4l-11.8-1.2l0.1-12.2l11.8,1.2l0,2.4L1538.3,555.7z"/>
			<path class="st20" d="M1557.6,557.7l0,4.8l-2.4-0.3l0-2.4l-2.6-0.3l0,7.3l-2.4-0.3l0-9.8L1557.6,557.7z"/>
			<path class="st20" d="M1569.1,568.7l-3.9,3.6l-1.8-0.2l0-1.6l2.5-2.2l-6.1-0.6l0-9.8l2.3,0.2l0,7.3l4.7,0.5l0-7.3l2.3,0.2
				L1569.1,568.7z"/>
			<path class="st20" d="M1580.8,569.9l-7.1-0.7l0,3.7l-2.3-0.2l0.1-13.5l9.4,1L1580.8,569.9z M1578.5,562.3l-4.7-0.5l0,4.9l4.7,0.5
				L1578.5,562.3z"/>
			<path class="st20" d="M1585.6,563l0,4.9l4.7,0.5l0,2.4l-7.1-0.7l0.1-13l2.3,0.2l0,3.2l4.7,0.5l0,2.4L1585.6,563z"/>
		</g>
		<path class="st10" d="M1589.5,488.6c0,0,1.9,7.2-11.2,12.1c0,0-12.2,5.7-24.6,3.1c0,0-6.5-5.4-2.7-12.6c0,0,0.1-6.4-3.7-11.8
			c0,0-13.2,0.5-12.9-8.2c0,0-7.2-19.4-0.7-28.4c0,0,0.4-9.6,2-10.4l10.9-10l8.7-2.9l12,13.3l20.1,9.3l2.1,14.7l-7.3,14.7
			C1582.3,471.5,1586.5,486.7,1589.5,488.6z"/>
		<path class="st11" d="M1565.2,441.8c0,0-8.1,0.8-8.1,4.8s-4.1,26.4-6.5,28.5c0,0-2.2,5.7,10.6,4.1c0,0,9.3,3.9,17.7,21.3
			c0,0,11.6-4.9,10.9-10.9c-0.1-0.5-0.8-1.1-1-1.6c0,0-3.3-4.1-5.2-12l-2.7-9l5.9-8.7l-0.7-10.9l-5.3-1.8l-9,6.3L1565.2,441.8z"/>
		<path class="st21" d="M1535.8,432.4c0,0,4.6-1.8,11.2-7.2l1.4-1.8c0,0,2.1,8.6,14.3,15.5c0,0,5.5,4.5,6,14.4l1.3,2.1
			c0,0,6.1-5.7,7.9-4.9c0,0,4.5-1.8,5.9,0.2c0,0,4.3,2.9-5.3,16.3c0,0-1.3,5.7,1.7,7.8c0,0,3.8-0.5,6.5-5.3c0,0,5,10.4,13.3,13.5
			v8.3c0,0,17.9,8.5,25.8,25.7c0,0,2.7,5.7,4.6,0c0,0,4.1-18,12.8-27.5s-9.3-18-9.3-18l1.1-21.1c0,0-3.8-3.5-10.3-7.6
			c-6.5-4.1,4.6-18-29.4-20.4C1595.5,422.1,1563.6,389.3,1535.8,432.4z"/>
		<path class="st13" d="M1553.7,503.9l-8.1,3.6c0,0-1.8-3.1,0.9-16l4.5-0.2C1551,491.2,1548.7,494.9,1553.7,503.9z"/>
		<path class="st13" d="M1553.3,503.7l1.1,8.3c0,0,9-0.5,28.5-9.2l-3.9-2.3C1578.9,500.5,1557,504.5,1553.3,503.7z"/>
		<path class="st22" d="M1547,648.5l0.4,10.4h14.5l0.9-10.7C1562.9,648.2,1547.4,647.8,1547,648.5"/>
		<path class="st14" d="M1534,648.5c0,0-2.2,7.7-1,10h2.9c0,0,0.2-7.6,1.8-10L1534,648.5z"/>
		<path class="st14" d="M1573,648c0,0,2.6,8.6,1.2,10.5l4.3-0.1c0,0,0.4-9.7-1.8-10.5L1573,648z"/>
		<path class="st13" d="M1558.9,525.6c0,0,18,2.3,21.3,1s0.3,22.9-8.8,28S1552.6,551.8,1558.9,525.6z"/>
	</g>
	<g>
		<path class="st20" d="M568.7,239v14.8h-3.5v-11.1H558v11.1h-3.5V239H568.7z"/>
	</g>
</g>
<g>
	<path class="st14" d="M580.9,251.3v-10.2h2v1c0.4-0.4,0.9-0.7,1.4-0.9s1.1-0.3,1.7-0.3c1.2,0,2.1,0.4,2.9,1.1
		c0.7,0.7,1.1,1.7,1.1,2.9v6.4h-2v-6.1c0-0.8-0.2-1.4-0.7-1.9c-0.5-0.5-1.1-0.7-1.8-0.7c-0.5,0-1,0.1-1.5,0.3
		c-0.4,0.2-0.8,0.6-1.1,1v7.3H580.9z"/>
	<path class="st14" d="M597.1,249.7c0.5,0,1-0.1,1.4-0.3c0.5-0.2,0.9-0.5,1.3-0.9l1.2,1.3c-0.5,0.5-1.1,1-1.8,1.3
		c-0.7,0.3-1.4,0.5-2.2,0.5c-0.7,0-1.4-0.1-2.1-0.4s-1.2-0.6-1.7-1.1c-0.5-0.5-0.8-1-1.1-1.7c-0.3-0.6-0.4-1.3-0.4-2.1
		c0-0.7,0.1-1.4,0.4-2.1c0.3-0.6,0.6-1.2,1.1-1.7c0.5-0.5,1-0.8,1.7-1.1c0.6-0.3,1.3-0.4,2.1-0.4c0.8,0,1.5,0.1,2.2,0.4
		c0.7,0.3,1.3,0.7,1.9,1.3l-1.3,1.4c-0.4-0.4-0.8-0.7-1.3-1s-1-0.3-1.5-0.3c-0.9,0-1.7,0.3-2.3,1c-0.6,0.7-1,1.5-1,2.5
		c0,1,0.3,1.8,1,2.5C595.4,249.4,596.2,249.7,597.1,249.7z"/>
	<path class="st14" d="M602.7,251.3v-10.2h2v1.3c0.3-0.5,0.7-0.9,1.2-1.1c0.5-0.3,1-0.4,1.6-0.4c0.2,0,0.4,0,0.6,0s0.3,0.1,0.5,0.1
		v1.8c-0.2-0.1-0.4-0.1-0.6-0.2c-0.2,0-0.4-0.1-0.6-0.1c-0.6,0-1.1,0.2-1.6,0.5c-0.5,0.3-0.8,0.8-1.1,1.4v6.8H602.7z"/>
	<path class="st14" d="M612.8,252.2l0.4-0.9l-4.1-10.2h2.2l3,7.8l3.3-7.8h2.2l-4.9,11.4c-0.5,1.1-1,1.9-1.6,2.3
		c-0.6,0.5-1.4,0.7-2.3,0.7c-0.2,0-0.4,0-0.6,0s-0.3,0-0.5-0.1v-1.8c0.1,0,0.3,0,0.4,0.1s0.3,0,0.5,0c0.5,0,0.8-0.1,1.2-0.4
		C612.4,253.1,612.6,252.7,612.8,252.2z"/>
	<path class="st14" d="M621,255.4v-14.3h2v1c0.4-0.4,0.9-0.7,1.4-0.8c0.5-0.2,1.1-0.3,1.7-0.3c0.7,0,1.4,0.1,2,0.4
		c0.6,0.3,1.2,0.6,1.6,1.1s0.8,1,1.1,1.7c0.3,0.6,0.4,1.3,0.4,2.1c0,0.7-0.1,1.4-0.4,2.1c-0.3,0.6-0.6,1.2-1.1,1.7s-1,0.8-1.7,1.1
		c-0.6,0.3-1.3,0.4-2,0.4c-0.6,0-1.1-0.1-1.6-0.3c-0.5-0.2-1-0.4-1.4-0.7v5H621z M625.9,242.7c-0.6,0-1.1,0.1-1.6,0.3
		s-0.9,0.5-1.2,0.9v4.6c0.3,0.4,0.7,0.7,1.2,0.9s1,0.3,1.6,0.3c1,0,1.8-0.3,2.5-1c0.7-0.7,1-1.5,1-2.5s-0.3-1.8-1-2.5
		C627.7,243,626.8,242.7,625.9,242.7z"/>
	<path class="st14" d="M633.9,248.8v-6h-2.2v-1.7h2.2v-2.6l2-0.5v3.1h3v1.7h-3v5.5c0,0.5,0.1,0.9,0.4,1.1c0.2,0.2,0.6,0.3,1.1,0.3
		c0.3,0,0.5,0,0.8,0s0.5-0.1,0.7-0.2v1.7c-0.3,0.1-0.6,0.2-0.9,0.2c-0.4,0.1-0.7,0.1-1,0.1c-1,0-1.7-0.2-2.3-0.7
		C634.1,250.3,633.9,249.6,633.9,248.8z"/>
	<path class="st14" d="M641.3,248.9c0.3,0,0.6,0.1,0.9,0.4s0.4,0.5,0.4,0.9c0,0.3-0.1,0.6-0.4,0.9c-0.2,0.3-0.5,0.4-0.9,0.4
		c-0.3,0-0.6-0.1-0.9-0.4c-0.3-0.3-0.4-0.6-0.4-0.9c0-0.3,0.1-0.6,0.4-0.9S641,248.9,641.3,248.9z"/>
	<path class="st14" d="M644.7,251.3v-10.2h2v1c0.4-0.4,0.9-0.7,1.4-0.9s1.1-0.3,1.7-0.3c1.2,0,2.1,0.4,2.9,1.1
		c0.7,0.7,1.1,1.7,1.1,2.9v6.4h-2v-6.1c0-0.8-0.2-1.4-0.7-1.9c-0.5-0.5-1.1-0.7-1.8-0.7c-0.5,0-1,0.1-1.5,0.3
		c-0.4,0.2-0.8,0.6-1.1,1v7.3H644.7z"/>
	<path class="st14" d="M664.8,250.1c-0.6,0.5-1.2,0.8-1.8,1c-0.6,0.2-1.3,0.3-2.1,0.3c-0.7,0-1.4-0.1-2.1-0.4s-1.2-0.6-1.7-1.1
		c-0.5-0.5-0.9-1-1.1-1.7c-0.3-0.6-0.4-1.3-0.4-2.1c0-0.7,0.1-1.4,0.4-2.1c0.3-0.6,0.6-1.2,1.1-1.7c0.5-0.5,1-0.8,1.6-1.1
		c0.6-0.3,1.3-0.4,2-0.4c0.7,0,1.3,0.1,2,0.4c0.6,0.3,1.1,0.6,1.6,1.1c0.4,0.5,0.8,1,1,1.7c0.3,0.7,0.4,1.4,0.4,2.1v0.6h-8
		c0.1,0.8,0.5,1.5,1.2,2.1c0.6,0.6,1.4,0.8,2.3,0.8c0.5,0,1-0.1,1.4-0.2c0.5-0.2,0.8-0.4,1.2-0.7L664.8,250.1z M660.6,242.6
		c-0.8,0-1.4,0.3-2,0.8c-0.6,0.5-0.9,1.2-1.1,2h6c-0.1-0.8-0.5-1.4-1-1.9S661.3,242.6,660.6,242.6z"/>
	<path class="st14" d="M668.4,248.8v-6h-2.2v-1.7h2.2v-2.6l2-0.5v3.1h3v1.7h-3v5.5c0,0.5,0.1,0.9,0.4,1.1c0.2,0.2,0.6,0.3,1.1,0.3
		c0.3,0,0.5,0,0.8,0s0.5-0.1,0.7-0.2v1.7c-0.3,0.1-0.6,0.2-0.9,0.2c-0.4,0.1-0.7,0.1-1,0.1c-1,0-1.7-0.2-2.3-0.7
		C668.6,250.3,668.4,249.6,668.4,248.8z"/>
	<path class="st14" d="M675.8,248.9c0.3,0,0.6,0.1,0.9,0.4s0.4,0.5,0.4,0.9c0,0.3-0.1,0.6-0.4,0.9c-0.2,0.3-0.5,0.4-0.9,0.4
		c-0.3,0-0.6-0.1-0.9-0.4c-0.3-0.3-0.4-0.6-0.4-0.9c0-0.3,0.1-0.6,0.4-0.9S675.5,248.9,675.8,248.9z"/>
	<path class="st14" d="M680.2,239.5c-0.3,0-0.6-0.1-0.9-0.4c-0.2-0.2-0.4-0.5-0.4-0.9c0-0.3,0.1-0.6,0.4-0.9
		c0.2-0.2,0.5-0.4,0.9-0.4c0.3,0,0.6,0.1,0.9,0.4c0.2,0.2,0.4,0.5,0.4,0.9c0,0.3-0.1,0.6-0.4,0.9S680.5,239.5,680.2,239.5z
		 M681.2,241.1v10.2h-2v-10.2H681.2z"/>
	<path class="st14" d="M683.5,251.3v-10.2h2v1c0.4-0.4,0.9-0.7,1.4-0.9s1.1-0.3,1.7-0.3c1.2,0,2.1,0.4,2.9,1.1
		c0.7,0.7,1.1,1.7,1.1,2.9v6.4h-2v-6.1c0-0.8-0.2-1.4-0.7-1.9c-0.5-0.5-1.1-0.7-1.8-0.7c-0.5,0-1,0.1-1.5,0.3
		c-0.4,0.2-0.8,0.6-1.1,1v7.3H683.5z"/>
</g>
<g>
	
		<image style="overflow:visible;opacity:0.54;" width="676" height="274" xlink:href="D24ACAB9.png"  transform="matrix(1 0 0 1 586 321)">
	</image>
	<g>
		<g>
			<g>
				<g transform="translate(0.000000,486.000000) scale(0.100000,-0.100000)">
					<path class="st20" d="M7097.3,506.9v-675.2h683.1h683.1v133.5V98.6h-541.8H7380v408.3v408.3l538.6,3.1l537,4.7l4.7,130.3
						l4.7,128.8h-684.7h-683.1V506.9z"/>
					<path class="st20" d="M11541.3,632.5V82.9h314.1h314.1V185V287h-212h-212v212v212h212h212v102.1v102.1h-212h-212v133.5v133.5
						h-102.1h-102.1V632.5z"/>
					<path class="st20" d="M8604.8,499V82.9h109.9h109.9V397V711h109.9h109.9V609V506.9h109.9h109.9V711v204.1h-329.8h-329.8V499z"
						/>
					<path class="st20" d="M9452.8,499V82.9h268.5h268.5L9878.3-20.7c-105.2-97.4-111.5-106.8-111.5-172.7v-69.1h83.2h81.7
						l177.4,177.4L10285,90.8v413v411.4H10183h-102.1V601.1V287h-212h-212v314.1v314.1h-102.1h-102.1V499z"/>
					<path class="st20" d="M10489.2,342v-573.2h102.1h102.1v157v157h314.1h314.1V499v416.1h-416.1h-416.1V342z M11117.3,499V287
						h-212h-212v212v212h212h212V499z"/>
				</g>
			</g>
			<path class="st20" d="M1154.8,539.4c-1.4-1.9-3.3-2.9-5.7-2.9c-2.4,0-4.3,1-5.7,2.9c-1.4,1.9-2.1,4.6-2.1,7.9
				c0,3.4,0.7,6,2.1,7.9c1.4,1.9,3.3,2.9,5.7,2.9s4.3-1,5.7-2.9c1.4-1.9,2.1-4.6,2.1-7.9C1156.9,544,1156.2,541.3,1154.8,539.4z
				 M1154.8,539.4c-1.4-1.9-3.3-2.9-5.7-2.9c-2.4,0-4.3,1-5.7,2.9c-1.4,1.9-2.1,4.6-2.1,7.9c0,3.4,0.7,6,2.1,7.9
				c1.4,1.9,3.3,2.9,5.7,2.9s4.3-1,5.7-2.9c1.4-1.9,2.1-4.6,2.1-7.9C1156.9,544,1156.2,541.3,1154.8,539.4z M1154.8,539.4
				c-1.4-1.9-3.3-2.9-5.7-2.9c-2.4,0-4.3,1-5.7,2.9c-1.4,1.9-2.1,4.6-2.1,7.9c0,3.4,0.7,6,2.1,7.9c1.4,1.9,3.3,2.9,5.7,2.9
				s4.3-1,5.7-2.9c1.4-1.9,2.1-4.6,2.1-7.9C1156.9,544,1156.2,541.3,1154.8,539.4z M1216.5,539.4c-1.4-1.9-3.3-2.9-5.7-2.9
				c-2.4,0-4.3,1-5.7,2.9c-1.4,1.9-2.1,4.6-2.1,7.9c0,3.4,0.7,6,2.1,7.9c1.4,1.9,3.3,2.9,5.7,2.9c2.4,0,4.3-1,5.7-2.9
				c1.4-1.9,2.1-4.6,2.1-7.9C1218.6,544,1217.9,541.3,1216.5,539.4z M1216.5,539.4c-1.4-1.9-3.3-2.9-5.7-2.9c-2.4,0-4.3,1-5.7,2.9
				c-1.4,1.9-2.1,4.6-2.1,7.9c0,3.4,0.7,6,2.1,7.9c1.4,1.9,3.3,2.9,5.7,2.9c2.4,0,4.3-1,5.7-2.9c1.4-1.9,2.1-4.6,2.1-7.9
				C1218.6,544,1217.9,541.3,1216.5,539.4z M1154.8,539.4c-1.4-1.9-3.3-2.9-5.7-2.9c-2.4,0-4.3,1-5.7,2.9c-1.4,1.9-2.1,4.6-2.1,7.9
				c0,3.4,0.7,6,2.1,7.9c1.4,1.9,3.3,2.9,5.7,2.9s4.3-1,5.7-2.9c1.4-1.9,2.1-4.6,2.1-7.9C1156.9,544,1156.2,541.3,1154.8,539.4z
				 M1216.5,539.4c-1.4-1.9-3.3-2.9-5.7-2.9c-2.4,0-4.3,1-5.7,2.9c-1.4,1.9-2.1,4.6-2.1,7.9c0,3.4,0.7,6,2.1,7.9
				c1.4,1.9,3.3,2.9,5.7,2.9c2.4,0,4.3-1,5.7-2.9c1.4-1.9,2.1-4.6,2.1-7.9C1218.6,544,1217.9,541.3,1216.5,539.4z M1149.1,536.5
				c-2.4,0-4.3,1-5.7,2.9c-1.4,1.9-2.1,4.6-2.1,7.9c0,3.4,0.7,6,2.1,7.9c1.4,1.9,3.3,2.9,5.7,2.9s4.3-1,5.7-2.9
				c1.4-1.9,2.1-4.6,2.1-7.9c0-3.3-0.7-5.9-2.1-7.9C1153.4,537.5,1151.5,536.5,1149.1,536.5z M1154.8,539.4
				c-1.4-1.9-3.3-2.9-5.7-2.9c-2.4,0-4.3,1-5.7,2.9c-1.4,1.9-2.1,4.6-2.1,7.9c0,3.4,0.7,6,2.1,7.9c1.4,1.9,3.3,2.9,5.7,2.9
				s4.3-1,5.7-2.9c1.4-1.9,2.1-4.6,2.1-7.9C1156.9,544,1156.2,541.3,1154.8,539.4z M1154.8,539.4c-1.4-1.9-3.3-2.9-5.7-2.9
				c-2.4,0-4.3,1-5.7,2.9c-1.4,1.9-2.1,4.6-2.1,7.9c0,3.4,0.7,6,2.1,7.9c1.4,1.9,3.3,2.9,5.7,2.9s4.3-1,5.7-2.9
				c1.4-1.9,2.1-4.6,2.1-7.9C1156.9,544,1156.2,541.3,1154.8,539.4z"/>
			<path class="st20" d="M650.1,345.8v48.7h-39.3v83.2h20.4v-62.8h42.4v62.8H694v-83.2h-39.3v-44h577.9v172.7H945.9
				c-252.7,0-286.9-0.3-288.9-2.3c-1.4-1.3-3.5-2.4-4.6-2.4c-2.8,0-7.1,4.2-7.1,7.1c0,2.8,4.2,7.1,7.1,7.1c1.1,0,3.1-1.1,4.6-2.4
				c2-2,36.4-2.4,291.3-2.4h142.3v42.9h146.8v-225H650.1z M1130.7,564.5h-25.4v-5.5l13.8-12c1.2-1.1,2.2-2.1,2.7-3
				c0.6-0.9,0.9-1.9,0.9-2.9c0-1.3-0.5-2.4-1.6-3.3c-1-0.9-2.4-1.3-4-1.3c-1.6,0-3.1,0.3-4.5,1c-1.4,0.7-2.9,1.7-4.6,3.2l-4.4-5.3
				c2.1-1.9,4.3-3.3,6.6-4.2c2.3-1,4.7-1.5,7.2-1.5c1.9,0,3.7,0.3,5.3,0.8c1.6,0.5,3,1.3,4.1,2.2s2,2.1,2.7,3.4
				c0.6,1.3,0.9,2.8,0.9,4.4c0,1.9-0.5,3.7-1.5,5.4c-1,1.7-2.6,3.5-4.9,5.5l-7.5,6.5h14.3V564.5z M1163.5,554.5
				c-0.8,2.2-1.8,4-3.1,5.6c-1.3,1.5-3,2.7-4.9,3.6c-1.9,0.8-4,1.3-6.4,1.3s-4.4-0.4-6.4-1.3c-1.9-0.9-3.6-2-4.9-3.6
				c-1.3-1.5-2.4-3.4-3.1-5.6s-1.1-4.6-1.1-7.3c0-2.6,0.4-5,1.1-7.2c0.8-2.2,1.8-4,3.2-5.6c1.4-1.5,3-2.7,4.9-3.6s4-1.3,6.3-1.3
				s4.4,0.4,6.3,1.3c1.9,0.8,3.5,2,4.9,3.6c1.4,1.5,2.4,3.4,3.2,5.6c0.8,2.2,1.1,4.6,1.1,7.2
				C1164.6,549.9,1164.3,552.3,1163.5,554.5z M1192.4,564.5H1167v-5.5l13.8-12c1.2-1.1,2.2-2.1,2.7-3c0.6-0.9,0.9-1.9,0.9-2.9
				c0-1.3-0.5-2.4-1.6-3.3c-1-0.9-2.4-1.3-4-1.3c-1.6,0-3.1,0.3-4.5,1c-1.4,0.7-2.9,1.7-4.6,3.2l-4.4-5.3c2.1-1.9,4.3-3.3,6.6-4.2
				c2.3-1,4.7-1.5,7.2-1.5c1.9,0,3.7,0.3,5.3,0.8c1.6,0.5,3,1.3,4.1,2.2s2,2.1,2.7,3.4c0.6,1.3,0.9,2.8,0.9,4.4
				c0,1.9-0.5,3.7-1.5,5.4c-1,1.7-2.6,3.5-4.9,5.5l-7.6,6.5h14.3V564.5z M1225.3,554.5c-0.8,2.2-1.8,4-3.1,5.6
				c-1.3,1.5-3,2.7-4.9,3.6c-1.9,0.8-4,1.3-6.4,1.3s-4.4-0.4-6.4-1.3c-1.9-0.9-3.6-2-4.9-3.6c-1.3-1.5-2.4-3.4-3.1-5.6
				s-1.1-4.6-1.1-7.3c0-2.6,0.4-5,1.1-7.2c0.8-2.2,1.8-4,3.2-5.6c1.4-1.5,3-2.7,4.9-3.6s4-1.3,6.3-1.3s4.4,0.4,6.3,1.3
				c1.9,0.8,3.5,2,4.9,3.6c1.4,1.5,2.4,3.4,3.2,5.6c0.8,2.2,1.1,4.6,1.1,7.2C1226.4,549.9,1226,552.3,1225.3,554.5z"/>
		</g>
	</g>
</g>
</svg>
